<svg version="1.1" preserveAspectRatio="none" xmlns="http://www.w3.org/2000/svg" width="500" height="500" viewBox="0 0 500 500"><rect width="100%" height="100%" fill="#EDECEB" fill-opacity="1"/><svg viewBox="782.2498 1115.9175 256.928 514.6049" width="166.2576940095207" height="333" x="166.8712px" y="83.5px" xmlns="http://www.w3.org/2000/svg" xmlns:xlink="http://www.w3.org/1999/xlink" preserveAspectRatio="none"><defs></defs><style>.companyName {fill:#5B4B42;fill-opacity:1;}.icon1 {fill:#B3D0D9;fill-opacity:1;}.icon2 {fill:#99A08E;fill-opacity:1;}.icon3 {fill:#DFC4B5;fill-opacity:1;}.icon3-str {stroke:#DFC4B5;stroke-opacity:1;}</style><g opacity="1" transform="rotate(0 782.2498 1115.9175)">
<svg width="256.928" height="354.6049" x="782.2498" y="1115.9175" version="1.1" preserveAspectRatio="none" viewBox="42 20 116 160.10000610351562">
  <g transform="matrix(1 0 0 1 0 0)" ><g><path d="M131 120.9c3 .3 6 1.2 8.8 2.5l-35.2 12.8c4.4-10.1 14.9-16.5 26.4-15.3zm-30.9-73.2l-.2 18.9c-1.6-5.4-6.4-9.5-12.3-9.9-1.6-.1-3.2.1-4.8.5L99.9 67l-.1 9c-2.3-5.4-7.7-9.1-13.9-9.1-1.8 0-3.5.3-5.1.9l19 9.1-.1 9.7c-3-6.2-9.4-10.3-16.6-9.9-2 .1-4 .6-5.9 1.4l22.5 9.4-.1 10.2c-3.2-7-10.3-11.7-18.4-11.2-2.2.1-4.4.6-6.5 1.5l24.8 10.4-.1 10.4c-3.9-7.6-12.1-12.3-21.1-11.4-2.6.3-5 1-7.1 2l28.2 10.2-.1 12.2c-4.3-8.6-13.5-14.1-23.6-13.1-2.8.3-5.4 1-7.9 2.3l31.5 11.4-.1 13.3c-4.6-9.7-14.9-16-26.2-14.8-3 .3-6 1.2-8.8 2.5l35 12.7-.2 23.5h3.9l-1.7-111.9h-1.1zm4.1 74.8l31.9-11.6c-2.5-1.2-5.2-2-7.9-2.3-10.4-1-19.9 4.8-24 13.9zm21.3-25.2c-9.3-1-17.9 4.3-21.6 12.5l28.7-10.4c-2.2-1.2-4.6-1.8-7.1-2.1zM104 98.6l25.2-10.7c-2.1-.9-4.2-1.4-6.5-1.5-8.4-.4-15.8 4.7-18.7 12.2zm16.8-22c-7.7-.4-14.4 4.3-17 11.1l22.9-9.7c-1.9-.8-3.9-1.3-5.9-1.4zm-2.9-9.8c-6.6.1-12.2 4.4-14.2 10.4l19.3-9.5c-1.6-.6-3.3-.9-5.1-.9zm-1.6-10.2c-6.1.5-10.9 4.9-12.3 10.6L121.1 57c-1.6-.4-3.2-.6-4.8-.4zm1.7-9.1c-1.4-.2-2.8-.2-4.2 0-5.2.9-9 5.1-9.8 10.1l14-10.1zm-28.1.1c-1.4-.2-2.8-.2-4.2.1l14.3 9.6c-.9-4.9-4.8-8.9-10.1-9.7zM158 78.3v43.5c0 32.1-26 58.3-58 58.3S42 154 42 121.8V78.3C42 46.1 68 20 100 20s58 26.1 58 58.3zm-3.4 0c0-30.3-24.5-54.9-54.6-54.9S45.4 48 45.4 78.3v43.5c0 30.3 24.5 54.9 54.6 54.9s54.6-24.6 54.6-54.9V78.3zm-3.4.2v43c0 28.4-23 51.4-51.2 51.4-28.2 0-51.2-23.1-51.2-51.4v-43c0-28.4 23-51.4 51.2-51.4s51.2 23 51.2 51.4zm-3.4 0c0-26.5-21.5-48.1-47.8-48.1-26.4 0-47.8 21.6-47.8 48.1v43c0 17 8.9 32 22.2 40.6.2-.1.3-.1.5-.1.7 0 1.1.6 1.1 1.1 7.3 4.3 15.6 6.5 24 6.5 26.4 0 47.8-21.6 47.8-48.1v-43zM69 93.6c1.4 0 1.5-2.3 0-2.3s-1.5 2.3 0 2.3zm2.3-15.8c1.4 0 1.5-2.3 0-2.3-1.4 0-1.4 2.3 0 2.3zm7.5-29.7c1.4 0 1.5-2.3 0-2.3-1.4 0-1.4 2.3 0 2.3zm-7.5 13.6c1.4 0 1.5-2.3 0-2.3-1.4.1-1.4 2.3 0 2.3zM58.6 87.1c-1.4 0-1.5 2.3 0 2.3 1.4 0 1.4-2.3 0-2.3zm74 6.5c1.4 0 1.5-2.3 0-2.3s-1.5 2.3 0 2.3zm-2.3-15.8c1.4 0 1.5-2.3 0-2.3s-1.5 2.3 0 2.3zm-7.6-29.7c1.4 0 1.5-2.3 0-2.3-1.4 0-1.4 2.3 0 2.3zm17.5 18.1c1.4 0 1.5-2.3 0-2.3s-1.5 2.3 0 2.3zm-9.9-4.5c1.4 0 1.5-2.3 0-2.3-1.5.1-1.5 2.3 0 2.3zM143 89.4c1.4 0 1.5-2.3 0-2.3s-1.5 2.3 0 2.3zM68.7 51.5c1.4 0 1.5-2.3 0-2.3-1.4 0-1.4 2.3 0 2.3zm-2.8 7.3c1.4 0 1.5-2.3 0-2.3-1.4.1-1.5 2.3 0 2.3zm0 10.2c1.4 0 1.5-2.3 0-2.3-1.4 0-1.5 2.3 0 2.3zm-6.2 1.1c-1.4 0-1.5 2.3 0 2.3s1.5-2.3 0-2.3zm50.7-29.4c.7 0 .7-1.1 0-1.1-.8 0-.8 1.1 0 1.1zm-14.1 0c.7 0 .7-1.1 0-1.1s-.7 1.1 0 1.1zm8.4-5.6c.7 0 .7-1.1 0-1.1-.7-.1-.7 1.1 0 1.1zm-1.1 2.8c-.7 0-.7 1.1 0 1.1s.7-1.1 0-1.1zm14.6 3.4c.7 0 .7-1.1 0-1.1s-.7 1.1 0 1.1zm11.9 6.2c.7 0 .7-1.1 0-1.1-.8 0-.8 1.1 0 1.1zm-2.3 7.4c.7 0 .7-1.1 0-1.1-.7-.1-.7 1.1 0 1.1zm9 .5c.7 0 .7-1.1 0-1.1s-.7 1.1 0 1.1zm0 16.4c.7 0 .7-1.1 0-1.1s-.7 1.1 0 1.1zm2.8 13.6c.7 0 .7-1.1 0-1.1s-.7 1.1 0 1.1zm-1.1-1.1c.7 0 .7-1.1 0-1.1-.7-.1-.7 1.1 0 1.1zm2.8-12.5c.7 0 .7-1.1 0-1.1s-.7 1.1 0 1.1zm.6 9.1c.7 0 .7-1.1 0-1.1-.8-.1-.8 1.1 0 1.1zm-13-11.9c.7 0 .7-1.1 0-1.1s-.7 1.1 0 1.1zM58 64.2c.7 0 .7-1.1 0-1.1s-.7 1.1 0 1.1zm.3 15.5c-.7 0-.7 1.1 0 1.1.7.1.7-1.1 0-1.1zm5.6 2c-.7 0-.7 1.1 0 1.1.8.1.8-1.1 0-1.1zm-4.8 15.6c.7 0 .7-1.1 0-1.1-.7-.1-.7 1.1 0 1.1zm21.7-58.5c.7 0 .7-1.1 0-1.1-.7-.1-.7 1.1 0 1.1zm7-2c.7 0 .7-1.1 0-1.1-.7-.1-.7 1.1 0 1.1zm0 7c.7 0 .7-1.1 0-1.1s-.7 1.1 0 1.1zm9.6-9.3c.7 0 .7-1.1 0-1.1s-.7 1.1 0 1.1zM73.8 68.2c.7 0 .7-1.1 0-1.1-.7-.1-.7 1.1 0 1.1zm3.6-10.5c.7 0 .7-1.1 0-1.1s-.7 1.1 0 1.1zm-5.3-6.2c.7 0 .7-1.1 0-1.1-.7-.1-.7 1.1 0 1.1zm1.1-7.9c.7 0 .7-1.1 0-1.1-.7-.1-.7 1.1 0 1.1zm59.7 37.8c.7 0 .7-1.1 0-1.1-.8 0-.8 1.1 0 1.1zm7.3 15.6c-.7 0-.7 1.1 0 1.1s.7-1.1 0-1.1zm5.6 1.1c.7 0 .7-1.1 0-1.1s-.7 1.1 0 1.1zm-80.6 41c-.7 0-.7 1.1 0 1.1s.7-1.1 0-1.1zm3.7 7.5c-.7 0-.7 1.1 0 1.1.7.1.7-1.1 0-1.1zm4.5-1.5c-.7 0-.7 1.1 0 1.1.7.1.7-1.1 0-1.1zm-1.5-6c-.7 0-.7 1.1 0 1.1s.7-1.1 0-1.1zm15 1.5c-.7 0-.7 1.1 0 1.1s.7-1.1 0-1.1zm-1.5 10c-1.4 0-1.5 2.3 0 2.3s1.5-2.3 0-2.3zm-.7 6.8c-1.4 0-1.5 2.3 0 2.3 1.4-.1 1.4-2.3 0-2.3zm35.2 0c-1.4 0-1.5 2.3 0 2.3 1.5-.1 1.5-2.3 0-2.3zm-3.7-18.1c-1.4 0-1.5 2.3 0 2.3 1.4 0 1.4-2.3 0-2.3zm18 0c-1.4 0-1.5 2.3 0 2.3 1.4 0 1.4-2.3 0-2.3zm-9.8 7.5c-1.4 0-1.5 2.3 0 2.3s1.5-2.3 0-2.3zm17.3-18.1c-1.4 0-1.5 2.3 0 2.3 1.4 0 1.4-2.3 0-2.3zm-2.3-19.6c-1.4 0-1.5 2.3 0 2.3s1.5-2.3 0-2.3zm-81.8 3.1c-1.4 0-1.5 2.3 0 2.3 1.5-.1 1.5-2.3 0-2.3zm1.5 13.5c-1.4 0-1.5 2.3 0 2.3s1.5-2.3 0-2.3zm18.8 20.4c-1.4 0-1.5 2.3 0 2.3 1.5-.1 1.5-2.3 0-2.3zm-3.7-10.8c-.7 0-.7 1.1 0 1.1.7.1.7-1.1 0-1.1zm-9.8-33.9c-.7 0-.7 1.1 0 1.1s.7-1.1 0-1.1zm76.5 19.6c-.7 0-.7 1.1 0 1.1.8 0 .8-1.1 0-1.1zm-32.2 32.4c-.7 0-.7 1.1 0 1.1.7.1.7-1.1 0-1.1zm18-19.6c-.7 0-.7 1.1 0 1.1.7.1.7-1.1 0-1.1zm-33.8 9.8c-.7 0-.7 1.1 0 1.1.7.1.7-1.1 0-1.1zm0 15.1c-.7 0-.7 1.1 0 1.1s.7-1.1 0-1.1z" data-color="1" class="icon1"></path></g></g>
</svg>
</g><g opacity="1" transform="rotate(0 782.2498 1510.5224)">
<svg width="256.928" height="120" x="782.2498" y="1510.5224" version="1.1" preserveAspectRatio="none" viewBox="2.4 -22.4 47.96 22.4">
  <g transform="matrix(1 0 0 1 0 0)" class="companyName"><path id="id-D6z1nYkh2" d="M12.64 0L2.40 0L2.40-0.64L5.32-1.96L5.32-20.44L2.40-21.76L2.40-22.40L12.04-22.40Q16.52-22.40 18.84-20.86Q21.16-19.32 21.16-16.08L21.16-16.08Q21.16-14.08 19.92-12.60Q18.68-11.12 16.50-10.34Q14.32-9.56 11.48-9.56L11.48-9.56L9.28-9.56L9.28-1.96L12.64-0.64L12.64 0ZM11-20.40L9.28-20.40L9.28-11.52L11.24-11.52Q13.92-11.52 15.48-12.70Q17.04-13.88 17.04-16L17.04-16Q17.04-18.36 15.46-19.38Q13.88-20.40 11-20.40L11-20.40Z M35.24 0L25.48 0L25.48-0.64L28.36-1.96L28.36-20.44L25.48-21.76L25.48-22.40L35.24-22.40L35.24-21.76L32.32-20.44L32.32-12.60L43.60-12.60L43.60-20.44L40.68-21.76L40.68-22.40L50.36-22.40L50.36-21.76L47.56-20.44L47.56-1.96L50.36-0.64L50.36 0L40.68 0L40.68-0.64L43.60-1.96L43.60-10.60L32.32-10.60L32.32-1.96L35.24-0.64L35.24 0Z"/></g>
</svg>
</g></svg></svg>